<?xml version="1.0" encoding="UTF-8" standalone="no"?>
<!-- Created with Inkscape (http://www.inkscape.org/) -->

<svg
   xmlns:dc="http://purl.org/dc/elements/1.1/"
   xmlns:cc="http://creativecommons.org/ns#"
   xmlns:rdf="http://www.w3.org/1999/02/22-rdf-syntax-ns#"
   xmlns:svg="http://www.w3.org/2000/svg"
   xmlns="http://www.w3.org/2000/svg"
   xmlns:sodipodi="http://sodipodi.sourceforge.net/DTD/sodipodi-0.dtd"
   xmlns:inkscape="http://www.inkscape.org/namespaces/inkscape"
   width="250mm"
   height="150mm"
   viewBox="0 0 250 150"
   version="1.1"
   id="svg8"
   inkscape:version="0.92.3 (2405546, 2018-03-11)"
   sodipodi:docname="logo.svg">
  <defs
     id="defs2" />
  <sodipodi:namedview
     id="base"
     pagecolor="#ffffff"
     bordercolor="#666666"
     borderopacity="1.0"
     inkscape:pageopacity="0.0"
     inkscape:pageshadow="2"
     inkscape:zoom="0.35"
     inkscape:cx="350"
     inkscape:cy="560"
     inkscape:document-units="mm"
     inkscape:current-layer="layer1"
     showgrid="false"
     inkscape:showpageshadow="false"
     inkscape:window-width="1440"
     inkscape:window-height="872"
     inkscape:window-x="0"
     inkscape:window-y="0"
     inkscape:window-maximized="1" />
  <metadata
     id="metadata5">
    <rdf:RDF>
      <cc:Work
         rdf:about="">
        <dc:format>image/svg+xml</dc:format>
        <dc:type
           rdf:resource="http://purl.org/dc/dcmitype/StillImage" />
        <dc:title></dc:title>
      </cc:Work>
    </rdf:RDF>
  </metadata>
  <g
     inkscape:label="Capa 1"
     inkscape:groupmode="layer"
     id="layer1"
     transform="translate(0,-147)">
    <g
       id="g856">
      <g
         transform="matrix(0.26666667,0,0,0.26666667,55.108927,140.82024)"
         id="g831">
        <circle
           style="fill:#ffee80"
           cx="254"
           cy="416"
           r="30"
           id="circle819" />
        <path
           style="fill:#80b6ff"
           inkscape:connector-curvature="0"
           d="m 138,416 c 0,13.255 -10.745,24 -24,24 -13.255,0 -24,-10.745 -24,-24 0,-13.255 10.745,-24 24,-24 13.255,0 24,10.745 24,24 z m 256,-24 c -13.255,0 -24,10.745 -24,24 0,13.255 10.745,24 24,24 13.255,0 24,-10.745 24,-24 0,-13.255 -10.745,-24 -24,-24 z M 478,92 H 30 c -11.046,0 -20,8.954 -20,20 v 186 c 0,11.046 8.954,20 20,20 h 448 c 11.046,0 20,-8.954 20,-20 V 112 c 0,-11.046 -8.954,-20 -20,-20 z"
           id="path821" />
        <path
           style="fill:#e6e6f9"
           inkscape:connector-curvature="0"
           d="M 90,62 H 418 V 348 H 90 Z"
           id="path823" />
        <circle
           style="fill:#ffee80"
           cx="334"
           cy="146"
           r="44"
           id="circle825" />
        <path
           style="fill:#d5ea79"
           inkscape:connector-curvature="0"
           d="M 267.946,216.939 408.149,348 H 90 V 146 c 4.984,0 9.969,2.148 13.405,6.443 l 79.858,99.823 37.791,-35.327 c 13.197,-12.336 33.695,-12.336 46.892,0 z"
           id="path827" />
        <path
           inkscape:connector-curvature="0"
           d="m 254,376 c -22.056,0 -40,17.944 -40,40 0,22.056 17.944,40 40,40 22.056,0 40,-17.944 40,-40 0,-22.056 -17.944,-40 -40,-40 z m 0,60 c -11.028,0 -20,-8.972 -20,-20 0,-11.028 8.972,-20 20,-20 11.028,0 20,8.972 20,20 0,11.028 -8.972,20 -20,20 z M 114,382 c -18.748,0 -34,15.252 -34,34 0,18.748 15.252,34 34,34 18.748,0 34,-15.252 34,-34 0,-18.748 -15.252,-34 -34,-34 z m 0,48 c -7.72,0 -14,-6.28 -14,-14 0,-7.72 6.28,-14 14,-14 7.72,0 14,6.28 14,14 0,7.72 -6.28,14 -14,14 z m 280,-48 c -18.748,0 -34,15.252 -34,34 0,18.748 15.252,34 34,34 18.748,0 34,-15.252 34,-34 0,-18.748 -15.252,-34 -34,-34 z m 0,48 c -7.72,0 -14,-6.28 -14,-14 0,-7.72 6.28,-14 14,-14 7.72,0 14,6.28 14,14 0,7.72 -6.28,14 -14,14 z M 334,200 c 29.776,0 54,-24.224 54,-54 0,-29.776 -24.224,-54 -54,-54 -29.776,0 -54,24.224 -54,54 0,29.776 24.224,54 54,54 z m 0,-88 c 18.748,0 34,15.252 34,34 0,18.748 -15.252,34 -34,34 -18.748,0 -34,-15.252 -34,-34 0,-18.748 15.252,-34 34,-34 z m 164,81.07 c 5.51,0 10,4.49 10,10 0,5.51 -4.49,10 -10,10 -5.51,0 -10,-4.49 -10,-10 0,-5.51 4.49,-10 10,-10 z m -488,20 c -5.51,0 -10,-4.48 -10,-10 0,-5.51 4.49,-10 10,-10 5.51,0 10,4.49 10,10 0,5.52 -4.49,10 -10,10 z M 478,81.642 H 428 V 62 c 0,-5.523 -4.477,-10 -10,-10 H 90 C 84.477,52 80,56.477 80,62 V 82 H 30 C 13.431,82 0,95.431 0,112 v 45.723 c 0,5.318 4,9.973 9.306,10.334 C 15.128,168.454 20,163.821 20,158.081 V 112 c 0.01,-5.5 4.5,-9.99 10,-10 H 80 V 308 H 30 c -5.5,-0.01 -9.99,-4.5 -10,-10 V 248.07 C 20,242.33 15.128,237.697 9.306,238.094 4,238.455 0,243.11 0,248.428 V 298 c 0,16.569 13.431,30 30,30 h 50 v 20 c 0,5.523 4.477,10 10,10 h 328 c 5.523,0 10,-4.477 10,-10 v -20.358 h 50 c 16.569,0 30,-13.431 30,-30 V 248.07 c 0,-5.318 -4,-9.973 -9.306,-10.334 C 492.872,237.34 488,241.973 488,247.712 v 49.93 c -0.01,5.5 -4.5,9.99 -10,10 h -50 v -206 h 50 c 5.5,0.01 9.99,4.5 10,10 v 46.081 c 0,5.74 4.872,10.373 10.694,9.976 C 504,167.338 508,162.683 508,157.365 v -45.723 c 0,-16.569 -13.431,-30 -30,-30 z M 408,72 V 334.172 L 274.774,209.634 c -16.977,-15.87 -43.573,-15.869 -60.549,0 l -29.901,27.951 -73.111,-91.388 c -3.008,-3.76 -6.877,-6.582 -11.214,-8.295 V 72 Z m -308,92.195 99.601,124.5 c 8.322,10.402 23.939,-2.092 15.617,-12.494 l -18.362,-22.953 31.028,-29.004 c 9.317,-8.71 23.916,-8.71 33.233,0 L 382.807,338 H 100 Z"
           id="path829" />
      </g>
      <text
         transform="scale(1.0043233,0.99569529)"
         id="text817"
         y="290.97513"
         x="5.0988908"
         style="font-style:normal;font-weight:normal;font-size:8.05692005px;line-height:1.25;font-family:sans-serif;letter-spacing:0px;word-spacing:0px;fill:#000000;fill-opacity:1;stroke:none;stroke-width:0.201423"
         xml:space="preserve"><tspan
           style="font-style:normal;font-variant:normal;font-weight:normal;font-stretch:normal;font-size:38.67321777px;font-family:Chilanka;-inkscape-font-specification:Chilanka;stroke-width:0.201423"
           y="290.97513"
           x="5.0988908"
           id="tspan815"
           sodipodi:role="line">SLIDER POST</tspan></text>
    </g>
  </g>
</svg>
